<?xml version="1.0"?>
<svg xmlns="http://www.w3.org/2000/svg" id="Layer_1" data-name="Layer 1" viewBox="0 0 512 512" width="512px" height="512px"><title>Surveillance</title><path d="M481.914,61H129.9a7.906,7.906,0,0,0-6.828,3.729,7.454,7.454,0,0,0-.289,7.532L153.094,131H141.241A8.632,8.632,0,0,0,133,139.481V143H76.234A8.024,8.024,0,0,0,68,150.785V156H30.086C25.667,156,22,159.21,22,163.628v81.566A7.911,7.911,0,0,0,30.086,253H68v5.037A8.171,8.171,0,0,0,76.234,266H133v3.341c0,4.419,3.823,7.659,8.241,7.659H259v92a8,8,0,0,0,8,8H441v66.2a7.531,7.531,0,0,0,7.644,7.8h32.2A7.966,7.966,0,0,0,489,443.2V261.292A8.391,8.391,0,0,0,480.841,253h-32.2c-4.418,0-7.644,3.874-7.644,8.292V328H307V277H416.447A7.344,7.344,0,0,0,424,269.341V181h57.914A7.833,7.833,0,0,0,490,173.288V68.8A7.9,7.9,0,0,0,481.914,61ZM38,237V172H68v65Zm419,32h16V435H457ZM84,250V159h49v91Zm215,94H441v17H275V277h16v59A8,8,0,0,0,299,344Zm109-83H149V147h12.311l15.13,29.558A8.09,8.09,0,0,0,183.557,181H408Zm66-96H188.442L143,77H474Z" fill="#E67F10"/></svg>
