<?xml version="1.0" encoding="iso-8859-1"?>
<!-- Generator: Adobe Illustrator 22.1.0, SVG Export Plug-In . SVG Version: 6.00 Build 0)  -->
<svg xmlns="http://www.w3.org/2000/svg" xmlns:xlink="http://www.w3.org/1999/xlink" version="1.1" id="Layer_3" x="0px" y="0px" viewBox="0 0 64 64" style="enable-background:new 0 0 64 64;" xml:space="preserve" width="512px" height="512px">
<path d="M62,1H32c-0.552,0-1,0.448-1,1v17h-2v-1c0-0.015-0.008-0.028-0.009-0.042c-0.005-0.118-0.023-0.235-0.07-0.345  c-0.001-0.003-0.004-0.006-0.006-0.009c-0.036-0.082-0.082-0.161-0.14-0.233l-13-16c-0.379-0.468-1.173-0.468-1.552,0l-13,16  c-0.058,0.072-0.104,0.151-0.14,0.233c-0.001,0.003-0.004,0.006-0.006,0.009c-0.046,0.11-0.065,0.227-0.07,0.345  C1.008,17.972,1,17.985,1,18v22c0,0.552,0.448,1,1,1h1v21c0,0.552,0.448,1,1,1h4c0.552,0,1-0.448,1-1v-1h12v1c0,0.552,0.448,1,1,1h4  c0.552,0,1-0.448,1-1V41h1h3v13c0,0.552,0.448,1,1,1h4c0.552,0,1-0.448,1-1V41.593c0.705,0.264,1.376,0.61,2,1.042V62  c0,0.552,0.448,1,1,1h12.536H53h9c0.552,0,1-0.448,1-1v-4c0-0.552-0.448-1-1-1h-7V33h2v21c0,0.552,0.448,1,1,1h4  c0.552,0,1-0.448,1-1V32V2C63,1.448,62.552,1,62,1z M54,7c1.654,0,3,1.346,3,3s-1.346,3-3,3s-3-1.346-3-3S52.346,7,54,7z M54,5  c-0.342,0-0.677,0.035-1,0.101V3h2v2.101C54.677,5.035,54.342,5,54,5z M40,7c1.654,0,3,1.346,3,3s-1.346,3-3,3s-3-1.346-3-3  S38.346,7,40,7z M40,5c-0.342,0-0.677,0.035-1,0.101V3h2v2.101C40.677,5.035,40.342,5,40,5z M33,3h4v3.026  C35.793,6.939,35,8.373,35,10c0,2.757,2.243,5,5,5s5-2.243,5-5c0-1.627-0.793-3.061-2-3.974V3h8v3.026C49.793,6.939,49,8.373,49,10  c0,2.757,2.243,5,5,5s5-2.243,5-5c0-1.627-0.793-3.061-2-3.974V3h4v28h-3h-1V18c0-0.552-0.448-1-1-1H38c-0.552,0-1,0.448-1,1v13h-4  v-1V20V3z M37,35.248V33h2v2.767C38.348,35.549,37.682,35.372,37,35.248z M27,39h-1h-1v-8c0-5.514-4.486-10-10-10S5,25.486,5,31v8H4  H3V19h24v1v10v6V39z M9,53h12v2H9V53z M9,51v-2h12v2H9z M9,47v-2h12v2H9z M9,43v-2h12v2H9z M8,39H7v-8c0-4.411,3.589-8,8-8  s8,3.589,8,8v8h-1H8z M29,31h2v1v3h-2V31z M33,33h2v2.032C34.781,35.022,34.564,35,34.343,35H33V33z M39,31V19h16v12H39z M31,21v8  h-2v-8H31z M15,3.586L25.899,17H4.101L15,3.586z M7,61H5V41h1h1V61z M9,59v-2h12v2H9z M25,61h-2V41h1h1V61z M33,53v-2h2v2H33z   M35,49h-2v-8h0.757c0.42,0,0.833,0.038,1.243,0.093V49z M41,61V44.508c1.293,1.627,2,3.625,2,5.734v3.222  c0,2.547,0.992,4.942,2.793,6.743c0.288,0.288,0.596,0.547,0.912,0.793H41z M61,61h-8h-0.464c-2.013,0-3.905-0.784-5.329-2.207  S45,55.477,45,53.464v-3.222c0-3.003-1.169-5.826-3.293-7.95S36.76,39,33.757,39H29v-2h5.343c3.381,0,6.559,1.316,8.95,3.707  S47,46.276,47,49.657v3.222c0,1.635,0.637,3.172,1.793,4.328S51.486,59,53.121,59H61V61z M53,56.988  c-1.055-0.031-2.044-0.446-2.793-1.195C49.429,55.015,49,53.979,49,52.879v-3.222c0-3.915-1.524-7.596-4.293-10.364  c-1.103-1.104-2.356-2-3.707-2.69V33h12V56.988z M61,33v16h-2V33H61z M59,53v-2h2v2H59z" fill="#E67F10"/>
</svg>
