<?xml version="1.0" encoding="iso-8859-1"?>
<!-- Generator: Adobe Illustrator 19.0.0, SVG Export Plug-In . SVG Version: 6.00 Build 0)  -->
<svg xmlns="http://www.w3.org/2000/svg" xmlns:xlink="http://www.w3.org/1999/xlink" version="1.1" id="Layer_1" x="0px" y="0px" viewBox="0 0 512 512" style="enable-background:new 0 0 512 512;" xml:space="preserve" width="512px" height="512px">
<g>
	<path d="M484.686,430.44h-14.299l-14.207-38.67c28.407-21.704,44.542-53.938,44.542-89.604   c0-61.981-50.438-112.406-112.436-112.406c-1.554,0-3.805,0.02-6.283,0.107l-28.44-77.409c11.506-0.194,17.628-3.845,24.667-8.065   l0.627-0.376l44.329-24.007c13.582-7.364,18.852-24.383,11.741-37.95c-4.886-9.29-14.465-15.061-25-15.061   c-4.509,0-9.005,1.107-13.004,3.202l-49.6,25.988h-53.765c-15.529,0-28.163,12.618-28.163,28.13   c0,15.525,12.634,28.157,28.163,28.157h5.204l7.987,21.739c-13.029,1.562-26.173,5.259-39.248,11.07l-1.727,0.777   c-5.076,2.292-7.332,8.266-5.039,13.342c1.684,3.729,5.354,5.936,9.196,5.936c1.388,0,2.799-0.288,4.146-0.897l1.646-0.738   c12.825-5.701,25.647-9.021,38.215-9.921l9.415,25.627c-21.361,1.362-42.664,7.251-61.232,17.073   c-24.878,13.162-43.499,32.711-54.261,56.787h-15.319c5.423-14.938,13.667-29.596,24.257-42.979   c3.456-4.367,2.717-10.71-1.651-14.166c-4.368-3.456-10.71-2.718-14.166,1.651c-13.529,17.098-23.706,36.139-29.722,55.493h-23.093   c-5.148,0-10.153,0.617-14.961,1.748l-36.529-99.427h6.549c21.903,0,39.724-17.816,39.724-39.717   c0-21.9-17.82-39.716-39.724-39.716H39.725C17.82,76.161,0,93.977,0,115.877c0,21.9,17.82,39.717,39.725,39.717h2.143l5.933,16.148   H16.942c-5.57,0-10.085,4.515-10.085,10.084v32.835c0,5.569,4.515,10.083,10.085,10.083h50.331l23.222,63.206   c-4.87,9.13-7.641,19.542-7.641,30.592c0,11.334,3.017,22.762,8.37,32.84l-49.17,79.059H30.005   c-15.045,0-27.284,12.238-27.284,27.281C2.721,472.764,14.96,485,30.005,485h176.818c5.57,0,10.085-4.515,10.085-10.084   c0-5.568-4.515-10.084-10.085-10.084H30.005c-3.923,0-7.114-3.19-7.114-7.11c0-3.922,3.191-7.113,7.114-7.113H47.62   c0.01,0,0.019,0.002,0.029,0.002c0.011,0,0.021-0.002,0.031-0.002h60.239c0.009,0,0.019,0.002,0.029,0.002   c0.01,0,0.021-0.002,0.031-0.002h321.972c0.025,0,0.051,0.003,0.076,0.003c0.022,0,0.045-0.003,0.067-0.003h33.18   c0.025,0,0.05,0.003,0.076,0.003c0.022,0,0.045-0.003,0.067-0.003h21.269c3.873,0,7.144,3.258,7.144,7.113   c0,3.853-3.271,7.11-7.144,7.11H287.042c-5.57,0-10.085,4.516-10.085,10.084c0,5.569,4.515,10.084,10.085,10.084h197.645   C499.748,485,512,472.764,512,457.722C512,442.679,499.748,430.44,484.686,430.44z M293.559,92.309   c-4.407,0-7.993-3.584-7.993-7.988c0-4.391,3.586-7.962,7.993-7.962h56.247c1.63,0,3.236-0.396,4.68-1.152l51.799-27.14   c1.137-0.596,2.363-0.898,3.643-0.898c3.021,0,5.761,1.64,7.142,4.267c2.015,3.844,0.446,8.709-3.492,10.845l-44.517,24.107   c-0.127,0.069-0.252,0.141-0.376,0.214l-0.827,0.496c-6.327,3.792-8.693,5.212-15.248,5.212H293.559z M320.249,112.478h11.836   l51.727,140.795h-11.834L320.249,112.478z M350.491,253.273h-40.44c7.481-11.913,17.652-22.046,29.608-29.483L350.491,253.273z    M330.663,199.305l1.922,5.23c-19.512,11.159-35.479,28.086-45.367,48.305l-0.219,0.433h-56.585   C251.271,216.521,293.294,199.903,330.663,199.305z M148.167,273.44h30.676c0.016,0,0.032,0.003,0.047,0.003   c0.023,0,0.046-0.003,0.069-0.003h35.56c0.022,0,0.044,0.003,0.066,0.003c0.026,0,0.051-0.003,0.077-0.003h78.525   c0.018,0,0.036,0.003,0.054,0.003c0.014,0,0.028-0.003,0.042-0.003h71.581c0.025,0,0.051,0.003,0.076,0.003   c0.022,0,0.045-0.003,0.067-0.003h26.213l16.661,45.348l-19.046,3.278c-0.163,0.021-0.326,0.054-0.489,0.084l-240.585,41.414   c-0.099,0.013-0.197,0.034-0.296,0.051l-1.011,0.174c-11.653,2.006-20.711-3.142-26.259-7.814c-3.238-2.728-6.096-5.967-8.51-9.548   c-0.159-0.27-0.329-0.533-0.514-0.789c-5.164-7.98-8.146-17.575-8.146-27.097C103.025,293.674,123.276,273.44,148.167,273.44z    M401.985,393.429c-4.518,0.657-9.132,1.007-13.698,1.007c-29.886,0-58.641-15.183-75.391-38.831l70.725-12.175L401.985,393.429z    M39.725,135.426c-10.782,0-19.555-8.769-19.555-19.549s8.772-19.549,19.555-19.549h63.502c10.782,0,19.554,8.77,19.554,19.549   s-8.772,19.549-19.554,19.549H39.725z M27.027,204.576V191.91h28.184l4.654,12.666H27.027z M83.78,211.188   c-0.056-0.152-0.105-0.309-0.168-0.457l-20.258-55.137H75.19l39.324,107.034c-3.314,1.999-6.428,4.293-9.325,6.829L83.78,211.188z    M102.317,430.44H65.806l38.402-61.745c0.973,0.934,1.966,1.84,2.993,2.705c7.285,6.136,15.49,10.161,24.052,11.94L102.317,430.44z    M125.989,430.44l29.312-47.709l136.021-23.413c19.395,33.349,57.402,55.285,96.966,55.285c6.934,0,13.975-0.661,20.775-1.906   l6.517,17.743H125.989z M437.065,430.44l-12.093-32.923c-0.043-0.121-0.084-0.242-0.131-0.359l-21.011-57.207l11.123-1.914   l33.948,92.403H437.065z M448.824,371.744L430.952,323.1c-0.019-0.05-0.036-0.101-0.055-0.15l-41.518-113.008   c50.374,0.588,91.173,41.73,91.173,92.226C480.553,329.301,469.129,354.04,448.824,371.744z" fill="#E67F10"/>
	<path d="M148.167,346.897c13.804,0,25.331-9.914,27.846-22.994l21.91-3.479l0.471,2.958c0.789,4.965,5.075,8.503,9.947,8.503   c0.526,0,1.06-0.042,1.596-0.127c5.501-0.874,9.25-6.043,8.376-11.543l-4.109-25.836c-0.875-5.5-6.044-9.243-11.544-8.375   c-5.5,0.875-9.25,6.043-8.375,11.542l0.47,2.959l-22.232,3.529c-4.955-8.286-14.017-13.849-24.355-13.849   c-15.655,0-28.391,12.721-28.391,28.357C119.776,334.177,132.513,346.897,148.167,346.897z M148.167,310.353   c4.517,0,8.19,3.674,8.19,8.189c0,4.513-3.674,8.186-8.19,8.186c-4.533,0-8.221-3.674-8.221-8.186   C139.946,314.027,143.634,310.353,148.167,310.353z" fill="#E67F10"/>
	<path d="M247.229,464.832h-0.283c-5.57,0-10.085,4.516-10.085,10.084c0,5.569,4.515,10.084,10.085,10.084h0.283   c5.57,0,10.085-4.515,10.085-10.084C257.314,469.348,252.799,464.832,247.229,464.832z" fill="#E67F10"/>
	<path d="M236.103,186.587c1.825,0,3.673-0.496,5.335-1.535l0.227-0.142c4.723-2.952,6.159-9.174,3.207-13.896   c-2.951-4.723-9.173-6.158-13.896-3.207l-0.227,0.143c-4.723,2.951-6.159,9.173-3.207,13.895   C229.455,184.906,232.741,186.587,236.103,186.587z" fill="#E67F10"/>
</g>















</svg>
