<?xml version="1.0" encoding="iso-8859-1"?>
<!-- Generator: Adobe Illustrator 22.1.0, SVG Export Plug-In . SVG Version: 6.00 Build 0)  -->
<svg xmlns="http://www.w3.org/2000/svg" xmlns:xlink="http://www.w3.org/1999/xlink" version="1.1" id="Layer_1_1_" x="0px" y="0px" viewBox="0 0 64 64" style="enable-background:new 0 0 64 64;" xml:space="preserve" width="512px" height="512px">
<g>
	<path d="M61,1H3C1.897,1,1,1.897,1,3v2c0,1.103,0.897,2,2,2h20.101c0.465,2.279,2.484,4,4.899,4h1v4h-4v6h6v2h2v-2h6v-6h-4v-4h1   c2.414,0,4.434-1.721,4.899-4H61c1.103,0,2-0.897,2-2V3C63,1.897,62.103,1,61,1z M37,19H27v-2h10V19z M33,15h-2v-4h2V15z M36,9h-8   c-1.302,0-2.402-0.839-2.816-2h13.631C38.402,8.161,37.302,9,36,9z M3,5V3h58l0.001,2H3z" fill="#E67F10"/>
	<path d="M11.534,26l-1.721-1.02c-0.356,0.601-0.685,1.227-0.977,1.86l1.816,0.838C10.917,27.106,11.213,26.542,11.534,26z" fill="#E67F10"/>
	<path d="M7.48,30.814l1.95,0.445c0.139-0.611,0.313-1.224,0.518-1.82l-1.892-0.648C7.829,29.454,7.635,30.136,7.48,30.814z" fill="#E67F10"/>
	<path d="M7,35h2c0-0.619,0.037-1.252,0.109-1.88l-1.986-0.23C7.042,33.595,7,34.305,7,35z" fill="#E67F10"/>
	<path d="M23.299,15.785c-0.699,0.099-1.396,0.238-2.072,0.415l0.507,1.936c0.602-0.158,1.222-0.282,1.845-0.37L23.299,15.785z" fill="#E67F10"/>
	<path d="M10.976,23.229l1.606,1.191c0.376-0.508,0.782-0.998,1.206-1.458l-1.472-1.355C11.845,22.119,11.394,22.665,10.976,23.229z   " fill="#E67F10"/>
	<path d="M17.295,17.737l0.94,1.766c0.551-0.294,1.126-0.559,1.709-0.786l-0.729-1.863C18.561,17.11,17.915,17.407,17.295,17.737z" fill="#E67F10"/>
	<path d="M13.825,20.136l1.315,1.506c0.474-0.413,0.974-0.803,1.488-1.158l-1.138-1.645C14.916,19.236,14.355,19.673,13.825,20.136z   " fill="#E67F10"/>
	<path d="M57,35c0-0.695-0.042-1.405-0.123-2.11l-1.986,0.23C54.963,33.748,55,34.381,55,35H57z" fill="#E67F10"/>
	<path d="M52.466,26c0.321,0.542,0.618,1.106,0.881,1.679l1.816-0.838c-0.292-0.634-0.621-1.26-0.977-1.86L52.466,26z" fill="#E67F10"/>
	<path d="M51.684,21.606l-1.472,1.355c0.424,0.46,0.83,0.95,1.206,1.458l1.606-1.191C52.606,22.665,52.155,22.119,51.684,21.606z" fill="#E67F10"/>
	<path d="M47.372,20.483c0.514,0.355,1.014,0.745,1.488,1.158l1.315-1.506c-0.53-0.463-1.09-0.899-1.666-1.297L47.372,20.483z" fill="#E67F10"/>
	<path d="M42.773,16.2c-0.676-0.177-1.373-0.316-2.072-0.415l-0.279,1.98c0.623,0.088,1.243,0.212,1.845,0.37L42.773,16.2z" fill="#E67F10"/>
	<path d="M54.052,29.439c0.205,0.597,0.379,1.209,0.518,1.82l1.95-0.445c-0.155-0.679-0.349-1.36-0.577-2.023L54.052,29.439z" fill="#E67F10"/>
	<path d="M44.056,18.717c0.583,0.228,1.158,0.492,1.709,0.786l0.94-1.766c-0.62-0.33-1.266-0.627-1.921-0.884L44.056,18.717z" fill="#E67F10"/>
	<path d="M56,36.764l-3.578,7.155C52.146,44.472,52,45.091,52,45.708V46c0,2.206,1.794,4,4,4s4-1.794,4-4v-0.292   c0-0.617-0.146-1.236-0.422-1.789L56,36.764z M58,46c0,1.103-0.897,2-2,2s-2-0.897-2-2v-0.292c0-0.309,0.073-0.618,0.211-0.895   L56,41.236l1.789,3.577C57.927,45.09,58,45.399,58,45.708V46z" fill="#E67F10"/>
	<path d="M8,36.764l-3.578,7.155C4.146,44.472,4,45.091,4,45.708V46c0,2.206,1.794,4,4,4s4-1.794,4-4v-0.292   c0-0.617-0.146-1.236-0.422-1.789L8,36.764z M10,46c0,1.103-0.897,2-2,2s-2-0.897-2-2v-0.292c0-0.309,0.073-0.618,0.211-0.895   L8,41.236l1.789,3.577C9.927,45.09,10,45.399,10,45.708V46z" fill="#E67F10"/>
	<rect x="31" y="29" width="2" height="2" fill="#E67F10"/>
	<rect x="31" y="33" width="2" height="2" fill="#E67F10"/>
	<rect x="31" y="25" width="2" height="2" fill="#E67F10"/>
	<path d="M38.553,32.105C38.367,32.198,34,34.435,34,39h2c0-2.018,1.264-3.464,2.261-4.291c0.184,0.689,0.444,1.41,0.712,2.152   c0.94,2.603,1.911,5.293,0.227,7.539l1.6,1.199c2.333-3.109,1.069-6.607,0.055-9.417C40.415,34.966,40,33.816,40,33v-1.618   L38.553,32.105z" fill="#E67F10"/>
	<path d="M23.375,45.781l1.249-1.562c-2.559-2.047-1.674-4.238-0.031-7.348c0.405-0.767,0.798-1.51,1.065-2.228   C26.667,35.459,28,36.929,28,39h2c0-4.565-4.367-6.802-4.553-6.895L24,31.382V33c0,0.714-0.57,1.794-1.175,2.937   C21.435,38.569,19.333,42.547,23.375,45.781z" fill="#E67F10"/>
	<path d="M41.401,45.653l-1.122,1.841c-0.009,0.015-0.809,1.283-3.324,2.179c-0.236-2.787-1.197-3.697-2.405-4.55   c-0.876-0.618-1.568-1.106-1.585-4.129l-0.008-1.427l-1.339,0.495c-0.157,0.058-3.849,1.455-5.17,4.819   c-0.547,1.394-0.607,2.896-0.182,4.484c-1.839-0.829-2.393-1.789-2.394-1.789l-1.005-2.002l-0.819,2.084   c-1.996,5.078-0.765,8.565,0.619,10.598C24.662,61.183,28.292,63,32.142,63c3.751,0,7.136-1.589,9.055-4.249   c1.428-1.98,2.743-5.508,0.894-11.066L41.401,45.653z M39.575,57.581C38.031,59.722,35.252,61,32.142,61   c-3.149,0-6.219-1.519-7.82-3.869c-1.345-1.974-1.657-4.43-0.928-7.173c0.859,0.696,2.225,1.484,4.335,2.012l2.123,0.531   l-0.988-1.952c-0.928-1.835-1.116-3.492-0.557-4.925c0.565-1.451,1.794-2.448,2.743-3.036c0.275,2.496,1.199,3.358,2.349,4.17   c0.892,0.629,1.597,1.126,1.614,4.248l0.007,1.273l1.236-0.31c2.115-0.528,3.511-1.322,4.399-2.02   C41.35,53.01,40.986,55.624,39.575,57.581z" fill="#E67F10"/>
</g>
</svg>
